<svg width="111" height="110" viewBox="0 0 111 110" fill="none" xmlns="http://www.w3.org/2000/svg">
<path d="M5.28409 58V14.3636H20.5398C23.5795 14.3636 26.0866 14.8892 28.0611 15.9403C30.0355 16.9773 31.5057 18.3764 32.4716 20.1378C33.4375 21.8849 33.9205 23.8239 33.9205 25.9545C33.9205 27.8295 33.5866 29.3778 32.919 30.5994C32.2656 31.821 31.3991 32.7869 30.3196 33.4972C29.2543 34.2074 28.0966 34.733 26.8466 35.0739V35.5C28.1818 35.5852 29.5241 36.054 30.8736 36.9062C32.223 37.7585 33.3523 38.9801 34.2614 40.571C35.1705 42.1619 35.625 44.108 35.625 46.4091C35.625 48.5966 35.1278 50.5639 34.1335 52.3111C33.1392 54.0582 31.5696 55.4432 29.4247 56.4659C27.2798 57.4886 24.4886 58 21.0511 58H5.28409ZM10.5682 53.3125H21.0511C24.5028 53.3125 26.9531 52.6449 28.402 51.3097C29.8651 49.9602 30.5966 48.3267 30.5966 46.4091C30.5966 44.9318 30.2202 43.5682 29.4673 42.3182C28.7145 41.054 27.642 40.0455 26.25 39.2926C24.858 38.5256 23.2102 38.142 21.3068 38.142H10.5682V53.3125ZM10.5682 33.5398H20.3693C21.9602 33.5398 23.3949 33.2273 24.6733 32.6023C25.9659 31.9773 26.9886 31.0966 27.7415 29.9602C28.5085 28.8239 28.892 27.4886 28.892 25.9545C28.892 24.0369 28.2244 22.4105 26.8892 21.0753C25.554 19.7259 23.4375 19.0511 20.5398 19.0511H10.5682V33.5398Z" fill="#CECECE"/>
<path d="M39.0667 80V36.3636H44.3508V58.0114H44.8622L64.4644 36.3636H71.3678L53.044 56.0511L71.3678 80H64.9758L49.8053 59.7159L44.3508 65.8523V80H39.0667Z" fill="#CECECE"/>
<path d="M96.744 77.6241C96.2753 76.1894 95.6574 74.9039 94.8904 73.7675C94.1375 72.617 93.2355 71.6368 92.1844 70.8272C91.1475 70.0175 89.9685 69.3996 88.6475 68.9735C87.3264 68.5473 85.8776 68.3343 84.3009 68.3343C81.7156 68.3343 79.3648 69.0019 77.2483 70.3371C75.1318 71.6723 73.4486 73.6397 72.1986 76.2391C70.9486 78.8385 70.3236 82.0275 70.3236 85.8059C70.3236 89.5843 70.9557 92.7732 72.2199 95.3726C73.4841 97.9721 75.1958 99.9394 77.3548 101.275C79.5139 102.61 81.9429 103.277 84.6418 103.277C87.1418 103.277 89.3435 102.745 91.2469 101.679C93.1645 100.6 94.656 99.08 95.7213 97.1198C96.8009 95.1454 97.3406 92.8229 97.3406 90.1525L98.96 90.4934H85.835V85.8059H102.454V90.4934C102.454 94.0871 101.687 97.2121 100.153 99.8684C98.6333 102.525 96.531 104.584 93.8463 106.047C91.1759 107.496 88.1077 108.221 84.6418 108.221C80.7781 108.221 77.3833 107.312 74.4571 105.493C71.5452 103.675 69.2725 101.09 67.6389 97.7377C66.0196 94.3854 65.21 90.4081 65.21 85.8059C65.21 82.3542 65.6716 79.2505 66.5949 76.4948C67.5324 73.7249 68.8534 71.367 70.558 69.4209C72.2625 67.4749 74.2796 65.9834 76.6091 64.9465C78.9386 63.9096 81.5026 63.3911 84.3009 63.3911C86.602 63.3911 88.7469 63.7391 90.7355 64.4351C92.7384 65.1169 94.521 66.09 96.0835 67.3542C97.6602 68.6042 98.9742 70.1027 100.025 71.8499C101.076 73.5829 101.801 75.5076 102.199 77.6241H96.744Z" fill="#F78500"/>
</svg>
